<mxfile host="app.diagrams.net" modified="2024-02-17T20:04:46.925Z" agent="Mozilla/5.0 (Windows NT 10.0; Win64; x64) AppleWebKit/537.36 (KHTML, like Gecko) Chrome/121.0.0.0 Safari/537.36" version="23.1.5" etag="2-acIDEvgCCCeRaGLZvr" type="github">
  <diagram name="Seite-1" id="3lGauVhYx2r4RJXc_9Sr">
    <mxGraphModel>
      <root>
        <mxCell id="0" />
        <mxCell id="1" parent="0" />
      </root>
    </mxGraphModel>
  </diagram>
</mxfile>
